# Blender 4.0.2
# www.blender.org
mtllib buzzlightyLeftFoot.mtl
o buzzlightyLeftFoot_buzzlighty.004
v 0.125175 0.015215 0.019856
v 0.099226 0.046516 0.029953
v 0.123502 0.015087 0.044372
v 0.095923 0.039991 0.060707
v 0.095923 0.039991 0.060707
v 0.102586 0.015076 0.086673
v 0.123502 0.015087 0.044372
v 0.043828 0.063053 -0.059568
v 0.028617 0.015263 -0.063361
v 0.040758 0.058966 -0.025398
v 0.020034 0.015264 -0.028744
v 0.042966 0.046728 0.029953
v 0.016778 0.015230 0.019855
v 0.113288 -0.000028 -0.063361
v 0.113336 0.015254 -0.063361
v 0.121872 -0.000028 -0.028744
v 0.121919 0.015253 -0.028744
v 0.037631 0.015082 0.086673
v 0.046236 0.040178 0.060707
v 0.018450 0.015098 0.044372
v 0.071101 0.045606 0.063485
v 0.070983 0.015079 0.094446
v 0.102524 -0.000208 0.086673
v 0.070922 -0.000207 0.094446
v 0.037569 -0.000207 0.086673
v 0.040348 -0.000026 -0.089687
v 0.040393 0.015262 -0.089687
v 0.070929 -0.000027 -0.094475
v 0.070976 0.015258 -0.094475
v 0.071190 0.068392 -0.023569
v 0.071115 0.051525 0.031640
v 0.101548 0.058737 -0.025398
v 0.098510 0.062847 -0.059568
v 0.071227 0.074937 -0.063452
v 0.070929 -0.000027 -0.094475
v 0.101515 -0.000028 -0.089687
v 0.040348 -0.000026 -0.089687
v 0.019986 -0.000026 -0.028744
v 0.016730 -0.000038 0.019850
v 0.020034 0.015264 -0.028744
v 0.016778 0.015230 0.019855
v 0.101560 0.015255 -0.089687
v 0.101515 -0.000028 -0.089687
v 0.051595 0.055126 -0.079504
v 0.040393 0.015262 -0.089687
v 0.121919 0.015253 -0.028744
v 0.121872 -0.000028 -0.028744
v 0.125127 -0.000058 0.019854
v 0.019986 -0.000026 -0.028744
v 0.016730 -0.000038 0.019850
v 0.018403 -0.000192 0.044372
v 0.037569 -0.000207 0.086673
v 0.018450 0.015098 0.044372
v 0.037631 0.015082 0.086673
v 0.113288 -0.000028 -0.063361
v 0.028569 -0.000026 -0.063361
v 0.113336 0.015254 -0.063361
v 0.090722 0.055019 -0.079504
v 0.101560 0.015255 -0.089687
v 0.125175 0.015215 0.019856
v 0.125127 -0.000058 0.019854
v 0.101560 0.015255 -0.089687
v 0.070976 0.015258 -0.094475
v 0.090722 0.055019 -0.079504
v 0.071173 0.064131 -0.081981
v 0.028569 -0.000026 -0.063361
v 0.028617 0.015263 -0.063361
v 0.123455 -0.000195 0.044373
v 0.018403 -0.000192 0.044372
v 0.051595 0.055126 -0.079504
v 0.040393 0.015262 -0.089687
v 0.018450 0.015098 0.044372
v 0.046236 0.040178 0.060707
v 0.071173 0.064131 -0.081981
v 0.101515 -0.000028 -0.089687
v 0.101560 0.015255 -0.089687
v 0.070922 -0.000207 0.094446
v 0.070983 0.015079 0.094446
v 0.123502 0.015087 0.044372
v 0.123455 -0.000195 0.044373
v 0.071101 0.045606 0.063485
v 0.018403 -0.000192 0.044372
v 0.018450 0.015098 0.044372
v 0.123502 0.015087 0.044372
v 0.102586 0.015076 0.086673
v 0.123455 -0.000195 0.044373
v 0.102524 -0.000208 0.086673
v 0.123455 -0.000195 0.044373
v 0.018403 -0.000192 0.044372
v 0.047746 0.086349 -0.000093
v 0.036781 0.081451 -0.026292
v 0.048755 0.061492 -0.009311
v 0.070764 0.119262 -0.012655
v 0.095454 0.108694 -0.016837
v 0.071169 0.112749 -0.050948
v 0.095730 0.104245 -0.042991
v 0.096739 0.079387 -0.052209
v 0.072646 0.076355 -0.064443
v 0.049031 0.057043 -0.035465
v 0.096187 0.088285 0.000099
v 0.107704 0.084285 -0.026010
v 0.095454 0.108694 -0.016837
v 0.095730 0.104245 -0.042991
v 0.096739 0.079387 -0.052209
v 0.097196 0.063428 -0.009119
v 0.047288 0.102309 -0.043184
v 0.047012 0.106758 -0.017030
v 0.048298 0.077452 -0.052401
v 0.047288 0.102309 -0.043184
v 0.048298 0.077452 -0.052401
v 0.047012 0.106758 -0.017030
v 0.047746 0.086349 -0.000093
v 0.071838 0.089382 0.012141
v 0.097472 0.058979 -0.035273
v 0.049031 0.057043 -0.035465
v 0.073720 0.046474 -0.039647
v 0.048755 0.061492 -0.009311
v 0.073316 0.052988 -0.001355
v 0.047746 0.086349 -0.000093
v 0.071838 0.089382 0.012141
v 0.096187 0.088285 0.000099
v 0.097196 0.063428 -0.009119
v 0.096187 0.088285 0.000099
v 0.097472 0.058979 -0.035273
vn -0.9240 0.0294 0.3812
vn -0.9992 -0.0393 -0.0039
vn -0.9091 -0.3364 0.2457
vn -0.9348 0.3296 0.1320
vn -0.9050 -0.4019 -0.1393
vn -0.9308 0.2642 -0.2527
vn -0.9159 -0.1015 -0.3885
vn -0.0386 0.9369 0.3474
vn 0.4180 0.8533 0.3116
vn -0.0280 0.7692 -0.6384
vn -0.4776 0.6678 -0.5709
vn 0.4275 0.7038 -0.5674
vn 0.0105 -0.1677 -0.9858
vn -0.4870 0.8173 0.3079
vn 0.3763 0.5996 0.7063
vn 0.4619 -0.1315 -0.8771
vn -0.0286 0.6377 0.7697
vn -0.4431 -0.1675 -0.8807
vn -0.4284 0.5679 0.7028
vn 0.4870 -0.8173 -0.3080
vn 0.0386 -0.9369 -0.3474
vn -0.4181 -0.8533 -0.3116
vn 0.0280 -0.7692 0.6384
vn -0.4275 -0.7038 0.5674
vn 0.4776 -0.6678 0.5709
vn -0.3931 -0.3337 0.8568
vn 0.0104 -0.3473 0.9377
vn 0.4116 -0.3021 0.8598
vn 0.9159 0.1015 0.3885
vn 0.9992 0.0393 0.0039
vn 0.9050 0.4019 0.1393
vn 0.9308 -0.2643 0.2527
vn 0.9091 0.3364 -0.2457
vn 0.9348 -0.3297 -0.1320
vn 0.9240 -0.0295 -0.3812
vn 0.8191 0.5703 0.0618
vn 0.5171 0.8283 0.2156
vn 0.7589 0.6404 0.1182
vn 0.6638 0.7455 0.0601
vn 0.4429 0.8703 0.2154
vn 0.8925 0.4289 -0.1394
vn 0.0037 0.9826 0.1858
vn 0.0036 0.9683 0.2498
vn 0.8926 0.3548 -0.2782
vn 0.0037 0.9832 0.1827
vn -0.5135 0.8306 0.2156
vn 0.7076 0.6791 -0.1954
vn -0.4390 0.8722 0.2157
vn 0.6797 0.5634 -0.4697
vn -0.6593 0.7495 0.0602
vn -0.7581 0.6414 0.1179
vn 0.0037 0.9809 -0.1945
vn 0.8607 0.3332 -0.3850
vn -0.8178 0.5722 0.0612
vn -0.7027 0.6839 -0.1964
vn -0.8906 0.4330 -0.1391
vn 0.0018 0.8638 -0.5038
vn -0.8904 0.3603 -0.2780
vn -0.6757 0.5675 -0.4705
vn -0.8586 0.3394 -0.3841
vn 0.4484 0.6864 0.5726
vn 0.4046 0.7095 0.5770
vn 0.7337 0.5744 0.3629
vn 0.0030 0.7314 0.6820
vn 0.0027 0.7121 0.7021
vn -0.4365 0.7004 0.5647
vn -0.4078 0.7204 0.5611
vn -0.7321 0.5947 0.3322
vn 0.9454 -0.0029 -0.3258
vn 0.9455 -0.0030 -0.3257
vn 0.9880 -0.0031 -0.1544
vn 0.9129 -0.0027 -0.4083
vn 0.9129 -0.0027 -0.4082
vn 0.9880 -0.0030 -0.1543
vn 1.0000 -0.0031 0.0005
vn 1.0000 -0.0031 0.0007
vn 0.9977 -0.0031 0.0680
vn -0.0000 -1.0000 -0.0003
vn -0.0000 -1.0000 0.0001
vn -0.6079 0.0018 -0.7940
vn -0.6068 0.0018 -0.7948
vn -0.0003 -0.0000 -1.0000
vn -0.9454 0.0029 -0.3259
vn 0.0003 -0.0000 -1.0000
vn -0.9454 0.0030 -0.3258
vn 0.1547 -0.0005 -0.9880
vn -0.9880 0.0031 -0.1544
vn -0.9880 0.0031 -0.1543
vn -1.0000 0.0031 0.0007
vn -1.0000 0.0031 0.0005
vn -0.9977 0.0031 0.0681
vn -0.0000 -1.0000 -0.0000
vn -0.0001 -1.0000 -0.0002
vn -0.0001 -1.0000 -0.0031
vn -0.0001 -1.0000 -0.0032
vn -0.0002 -1.0000 -0.0057
vn -0.0000 -1.0000 -0.0063
vn -0.9109 0.0028 0.4127
vn -0.6349 0.0025 0.7726
vn -0.9108 0.0030 0.4128
vn -0.6336 0.0026 0.7737
vn 0.0055 -0.0000 1.0000
vn 0.0067 -0.0000 1.0000
vn 0.6252 -0.0025 0.7805
vn 0.6266 -0.0024 0.7794
vn 0.8964 -0.0029 0.4433
vn 0.8964 -0.0027 0.4432
vn 0.1484 0.2831 -0.9475
vn -0.0002 0.2755 -0.9613
vn 0.2052 0.2540 -0.9452
vn 0.0007 0.2477 -0.9688
vn -0.2047 0.2553 -0.9449
vn -0.1483 0.2837 -0.9474
vt 0.450962 0.940219
vt 0.471094 0.904122
vt 0.490743 0.940540
vt 0.429760 0.904122
vt 0.511346 0.904122
vt 0.450001 0.940047
vt 0.491524 0.940922
vt 0.582794 0.677293
vt 0.582794 0.717669
vt 0.568077 0.677293
vt 0.568077 0.717669
vt 0.553457 0.677293
vt 0.597841 0.717669
vt 0.553457 0.717669
vt 0.597841 0.677293
vt 0.538804 0.717669
vt 0.538804 0.677293
vt 0.523998 0.677293
vt 0.523998 0.717669
vt 0.512596 0.717669
vt 0.512596 0.677293
vt 0.429238 0.904122
vt 0.470572 0.904122
vt 0.450440 0.940176
vt 0.449479 0.940003
vt 0.490221 0.940496
vt 0.491002 0.940878
vt 0.510825 0.904122
vt 0.484347 0.701924
vt 0.474080 0.700641
vt 0.482127 0.705821
vt 0.475460 0.684805
vt 0.472485 0.706264
vt 0.488650 0.687293
vt 0.466910 0.684222
vt 0.466910 0.700455
vt 0.490261 0.678176
vt 0.466910 0.706160
vt 0.459794 0.700559
vt 0.476229 0.676621
vt 0.461329 0.706210
vt 0.477109 0.671466
vt 0.459752 0.684102
vt 0.451655 0.705682
vt 0.466910 0.675059
vt 0.490777 0.675278
vt 0.449449 0.701742
vt 0.459726 0.675902
vt 0.445361 0.686907
vt 0.467318 0.667591
vt 0.443942 0.677710
vt 0.457131 0.670975
vt 0.443482 0.674792
vt 0.531214 0.115381
vt 0.533275 0.145578
vt 0.558492 0.115381
vt 0.516035 0.151840
vt 0.516157 0.115381
vt 0.501085 0.115381
vt 0.498816 0.145386
vt 0.473720 0.115381
vt 0.934544 0.864988
vt 0.946322 0.864969
vt 0.934544 0.846804
vt 0.946321 0.874616
vt 0.934544 0.874632
vt 0.946321 0.846788
vt 0.946322 0.811107
vt 0.934544 0.811095
vt 0.946322 0.797096
vt 0.934544 0.797079
vt 0.347161 0.947551
vt 0.341228 0.933099
vt 0.344224 0.923687
vt 0.359108 0.914998
vt 0.362443 0.953877
vt 0.934544 0.655059
vt 0.946322 0.655043
vt 0.934544 0.643179
vt 0.946322 0.664687
vt 0.946322 0.643161
vt 0.934544 0.664707
vt 0.934544 0.631297
vt 0.946321 0.631280
vt 0.946321 0.682872
vt 0.934544 0.682888
vt 0.934544 0.718569
vt 0.946322 0.718581
vt 0.946322 0.732597
vt 0.934544 0.732580
vt 0.419773 0.929352
vt 0.416372 0.941576
vt 0.412475 0.912353
vt 0.401319 0.910790
vt 0.404713 0.949224
vt 0.391552 0.953846
vt 0.387610 0.909088
vt 0.370958 0.954220
vt 0.366669 0.911866
vt 0.934544 0.751534
vt 0.946321 0.751557
vt 0.934544 0.764826
vt 0.946322 0.764850
vt 0.934544 0.777471
vt 0.946322 0.777494
vt 0.620417 0.736462
vt 0.614488 0.653957
vt 0.705234 0.690819
vt 0.713521 0.654126
vt 0.705525 0.690664
vt 0.620197 0.736623
s 1
usemtl Material.020
f 90/1/1 91/2/2 92/3/3
f 107/4/4 91/2/2 90/1/1
f 92/3/3 91/2/2 99/5/5
f 106/6/6 91/2/2 107/4/4
f 99/5/5 91/2/2 108/7/7
f 108/7/7 91/2/2 106/6/6
f 93/8/8 94/9/9 95/10/10
f 109/11/11 93/8/8 95/10/10
f 95/10/10 94/9/9 96/11/12
f 95/10/10 98/12/13 109/11/11
f 111/9/14 93/8/8 109/11/11
f 93/8/8 121/13/15 94/9/9
f 96/11/12 97/14/16 95/10/10
f 95/10/10 97/14/16 98/12/13
f 111/9/14 113/15/17 93/8/8
f 113/15/17 121/13/15 93/8/8
f 109/11/11 98/12/13 110/14/18
f 112/13/19 113/15/17 111/9/14
f 97/14/16 124/16/20 98/12/13
f 98/12/13 116/17/21 110/14/18
f 98/12/13 124/16/20 116/17/21
f 110/14/18 116/17/21 115/16/22
f 116/17/21 124/16/20 118/18/23
f 115/16/22 116/17/21 117/19/24
f 117/19/24 116/17/21 118/18/23
f 118/18/23 124/16/20 122/19/25
f 117/19/24 118/18/23 119/20/26
f 118/18/23 122/19/25 120/21/27
f 119/20/26 118/18/23 120/21/27
f 120/21/27 122/19/25 123/20/28
f 100/22/29 101/23/30 102/24/31
f 105/25/32 101/23/30 100/22/29
f 102/24/31 101/23/30 103/26/33
f 114/27/34 101/23/30 105/25/32
f 103/26/33 101/23/30 104/28/35
f 104/28/35 101/23/30 114/27/34
f 1/29/36 2/30/37 3/31/38
f 1/29/36 32/32/39 2/30/37
f 3/31/38 2/30/37 4/33/40
f 46/34/41 32/32/39 1/29/36
f 32/32/39 30/35/42 2/30/37
f 2/30/37 31/36/43 4/33/40
f 2/30/37 30/35/42 31/36/43
f 46/34/41 57/37/44 32/32/39
f 4/33/40 31/36/43 81/38/45
f 30/35/42 12/39/46 31/36/43
f 32/32/39 57/37/44 33/40/47
f 32/32/39 33/40/47 30/35/42
f 81/38/45 31/36/43 73/41/48
f 73/41/48 31/36/43 12/39/46
f 33/40/47 57/37/44 58/42/49
f 10/43/50 12/39/46 30/35/42
f 12/39/46 72/44/51 73/41/48
f 30/35/42 33/40/47 34/45/52
f 58/42/49 57/37/44 59/46/53
f 12/39/46 10/43/50 13/47/54
f 13/47/54 72/44/51 12/39/46
f 58/42/49 34/45/52 33/40/47
f 10/43/50 30/35/42 8/48/55
f 13/47/54 10/43/50 11/49/56
f 8/48/55 30/35/42 34/45/52
f 74/50/57 34/45/52 58/42/49
f 8/48/55 9/51/58 10/43/50
f 10/43/50 9/51/58 11/49/56
f 74/50/57 44/52/59 34/45/52
f 8/48/55 44/52/59 9/51/58
f 34/45/52 44/52/59 8/48/55
f 9/51/58 44/52/59 45/53/60
f 5/54/61 6/55/62 7/56/63
f 5/54/61 22/57/64 6/55/62
f 21/58/65 22/57/64 5/54/61
f 21/58/65 19/59/66 22/57/64
f 22/57/64 19/59/66 18/60/67
f 18/60/67 19/59/66 20/61/68
f 14/62/69 15/63/70 16/64/71
f 14/62/69 76/65/72 15/63/70
f 75/66/73 76/65/72 14/62/69
f 16/64/71 15/63/70 17/67/74
f 17/67/74 60/68/75 16/64/71
f 16/64/71 60/68/75 61/69/76
f 60/68/75 79/70/77 61/69/76
f 61/69/76 79/70/77 80/71/77
f 23/72/78 24/73/79 25/74/78
f 69/75/78 23/72/78 25/74/78
f 68/76/78 23/72/78 69/75/78
f 26/77/80 27/78/81 28/79/82
f 26/77/80 67/80/83 27/78/81
f 28/79/82 27/78/81 29/81/84
f 66/82/85 67/80/83 26/77/80
f 29/81/84 43/83/86 28/79/82
f 42/84/86 43/83/86 29/81/84
f 66/82/85 40/85/87 67/80/83
f 38/86/88 40/85/87 66/82/85
f 38/86/88 39/87/89 40/85/87
f 40/85/87 39/87/89 41/88/90
f 39/87/89 83/89/91 41/88/90
f 82/90/91 83/89/91 39/87/89
f 35/91/92 36/92/92 37/93/92
f 36/92/92 56/94/92 37/93/92
f 55/95/92 56/94/92 36/92/92
f 55/95/92 47/96/78 56/94/92
f 56/94/92 47/96/78 49/97/93
f 47/96/78 48/98/94 49/97/93
f 49/97/93 48/98/94 50/99/95
f 48/98/94 88/76/96 50/99/95
f 50/99/95 88/76/96 89/75/97
f 51/90/98 52/100/99 53/89/100
f 53/89/100 52/100/99 54/101/101
f 52/100/99 77/102/102 54/101/101
f 54/101/101 77/102/102 78/103/103
f 87/104/104 78/103/103 77/102/102
f 85/105/105 78/103/103 87/104/104
f 86/71/106 85/105/105 87/104/104
f 84/70/107 85/105/105 86/71/106
f 62/106/108 63/107/109 64/108/110
f 64/108/110 63/107/109 65/109/111
f 65/109/111 63/107/109 70/110/112
f 70/110/112 63/107/109 71/111/113
