# Blender 4.0.2
# www.blender.org
mtllib buzzlightyRightHand.mtl
o buzzlightyRightHand_buzzlighty.017
v -0.414488 0.592715 0.121549
v -0.425137 0.603352 0.114017
v -0.446981 0.597684 0.155638
v -0.457521 0.606191 0.144998
v -0.435866 0.576294 0.073838
v -0.457658 0.576095 0.079350
v -0.462193 0.588883 0.073212
v -0.485122 0.581545 0.108810
v -0.445065 0.570054 0.127729
v -0.457221 0.579519 0.140369
v -0.496602 0.598394 0.100602
v -0.462969 0.598174 0.073005
v -0.494014 0.586428 0.099668
v -0.417450 0.571399 0.128366
v -0.415484 0.567924 0.120479
v -0.446808 0.580659 0.152143
v -0.488477 0.607891 0.110273
v -0.456393 0.607394 0.081811
v -0.416330 0.598622 0.095615
v -0.412583 0.587732 0.098678
v -0.407008 0.598129 0.086483
v -0.405157 0.587574 0.088938
v -0.416364 0.575120 0.094499
v -0.412583 0.587732 0.098678
v -0.435290 0.599754 0.075324
v -0.423332 0.599528 0.066295
v -0.438801 0.591762 0.071363
v -0.427168 0.590968 0.062410
v -0.435866 0.576294 0.073838
v -0.424811 0.576251 0.065692
v -0.427168 0.590968 0.062410
v -0.405405 0.584506 0.067047
v -0.424811 0.576251 0.065692
v -0.438801 0.591762 0.071363
v -0.427168 0.590968 0.062410
v -0.430417 0.571607 0.123721
v -0.430167 0.564086 0.115972
v -0.421053 0.564668 0.117235
v -0.488477 0.607891 0.110273
v -0.485122 0.581545 0.108810
v -0.457521 0.606191 0.144998
v -0.457221 0.579519 0.140369
v -0.438046 0.571852 0.137557
v -0.446808 0.580659 0.152143
v -0.408884 0.574881 0.086242
v -0.416330 0.598622 0.095615
v -0.407008 0.598129 0.086483
v -0.405157 0.587574 0.088938
v -0.408884 0.574881 0.086242
v -0.416364 0.575120 0.094499
v -0.438801 0.591762 0.071363
v -0.445065 0.570054 0.127729
v -0.438046 0.571852 0.137557
v -0.435866 0.576294 0.073838
v -0.416364 0.575120 0.094499
v -0.457658 0.576095 0.079350
v -0.430167 0.564086 0.115972
v -0.423332 0.599528 0.066295
v -0.496602 0.598394 0.100602
v -0.494014 0.586428 0.099668
v -0.417450 0.571399 0.128366
v -0.485122 0.581545 0.108810
v -0.435290 0.599754 0.075324
v -0.421053 0.564668 0.117235
v -0.430167 0.564086 0.115972
v -0.446981 0.597684 0.155638
v -0.446808 0.580659 0.152143
v -0.415484 0.567924 0.120479
v -0.427168 0.590968 0.062410
v -0.438046 0.571852 0.137557
v -0.495388 0.546916 0.159784
v -0.492489 0.566066 0.157161
v -0.493692 0.552505 0.169895
v -0.491803 0.566802 0.169214
v -0.478516 0.593397 0.156578
v -0.456058 0.589876 0.136364
v -0.482061 0.600587 0.147943
v -0.463052 0.602155 0.129680
v -0.505403 0.567844 0.170170
v -0.492183 0.598118 0.157506
v -0.504521 0.566895 0.156537
v -0.492455 0.593587 0.143727
v -0.454870 0.593595 0.121012
v -0.463046 0.581133 0.128726
v -0.454870 0.593595 0.121012
v -0.470323 0.590866 0.121632
v -0.493692 0.552505 0.169895
v -0.505598 0.548287 0.170035
v -0.495388 0.546916 0.159784
v -0.479612 0.590099 0.144789
v -0.492489 0.566066 0.157161
v -0.491803 0.566802 0.169214
v -0.505403 0.567844 0.170170
v -0.505598 0.548287 0.170035
v -0.492455 0.593587 0.143727
v -0.470323 0.590866 0.121632
v -0.504521 0.566895 0.156537
v -0.505330 0.552336 0.158391
v -0.504521 0.566895 0.156537
v -0.505330 0.552336 0.158391
v -0.490790 0.592585 0.142846
v -0.469138 0.591951 0.122883
v -0.492825 0.601160 0.134396
v -0.475026 0.603028 0.117283
v -0.467076 0.593829 0.108921
v -0.467076 0.593829 0.108921
v -0.475240 0.584027 0.116194
v -0.497594 0.553753 0.137657
v -0.497546 0.571876 0.137813
v -0.496959 0.558354 0.146546
v -0.497149 0.570940 0.148105
v -0.481155 0.592798 0.110463
v -0.508188 0.570865 0.137755
v -0.502394 0.592924 0.131867
v -0.497546 0.571876 0.137813
v -0.491419 0.590739 0.131827
v -0.506916 0.558177 0.137241
v -0.508188 0.570865 0.137755
v -0.506317 0.552089 0.146052
v -0.508989 0.569667 0.149681
v -0.481155 0.592798 0.110463
v -0.503073 0.595621 0.144295
v -0.497149 0.570940 0.148105
v -0.508989 0.569667 0.149681
v -0.502394 0.592924 0.131867
v -0.496959 0.558354 0.146546
v -0.506317 0.552089 0.146052
v -0.497594 0.553753 0.137657
v -0.508188 0.570865 0.137755
v -0.506916 0.558177 0.137241
v -0.485417 0.603648 0.105783
v -0.491244 0.593401 0.099281
v -0.500496 0.601455 0.120265
v -0.506539 0.590721 0.114046
v -0.478120 0.594421 0.098061
v -0.478120 0.594421 0.098061
v -0.479825 0.592588 0.111074
v -0.485626 0.584646 0.104703
v -0.495537 0.590329 0.124495
v -0.507199 0.594540 0.125892
v -0.500477 0.569000 0.128999
v -0.511986 0.567204 0.130775
v -0.500333 0.555561 0.118318
v -0.500809 0.570303 0.118839
v -0.499702 0.557662 0.127355
v -0.500477 0.569000 0.128999
v -0.506539 0.590721 0.114046
v -0.491244 0.593401 0.099281
v -0.496112 0.587564 0.113986
v -0.510964 0.568884 0.119169
v -0.500809 0.570303 0.118839
v -0.510964 0.568884 0.119169
v -0.508941 0.557720 0.118776
v -0.510964 0.568884 0.119169
v -0.499702 0.557662 0.127355
v -0.508857 0.553174 0.127399
v -0.500333 0.555561 0.118318
v -0.511986 0.567204 0.130775
v -0.508857 0.553174 0.127399
v -0.508941 0.557720 0.118776
v -0.487956 0.565602 0.165649
v -0.477349 0.563633 0.165923
v -0.490232 0.552978 0.168750
v -0.481848 0.546829 0.171170
v -0.443323 0.592510 0.133448
v -0.451115 0.601715 0.141663
v -0.444928 0.590622 0.147566
v -0.443323 0.592510 0.133448
v -0.451336 0.582714 0.140568
v -0.457548 0.591502 0.134531
v -0.488328 0.567874 0.177691
v -0.489813 0.549853 0.179675
v -0.466683 0.587243 0.167576
v -0.476921 0.591730 0.166499
v -0.476391 0.565389 0.176539
v -0.488328 0.567874 0.177691
v -0.478647 0.587871 0.155839
v -0.469021 0.578539 0.157652
v -0.487956 0.565602 0.165649
v -0.477349 0.563633 0.165923
v -0.479703 0.552722 0.178633
v -0.476391 0.565389 0.176539
v -0.468265 0.599363 0.158143
v -0.478647 0.587871 0.155839
v -0.487956 0.565602 0.165649
v -0.457548 0.591502 0.134531
v -0.479703 0.552722 0.178633
v -0.489813 0.549853 0.179675
v -0.481848 0.546829 0.171170
v -0.490232 0.552978 0.168750
v -0.448765 0.544020 0.140575
v -0.456457 0.535471 0.151828
v -0.455107 0.554063 0.147558
v -0.460865 0.542366 0.157027
v -0.438830 0.547087 0.152374
v -0.448641 0.537410 0.160078
v -0.456420 0.537625 0.160088
v -0.449591 0.562102 0.139454
v -0.440693 0.565633 0.150182
v -0.446371 0.556725 0.157327
v -0.432660 0.554385 0.144694
v -0.442856 0.553220 0.130063
v -0.433028 0.585783 0.117022
v -0.426319 0.583281 0.118495
v -0.433971 0.579039 0.109315
v -0.423411 0.575201 0.123956
v -0.430411 0.558115 0.139443
v -0.436165 0.569358 0.113068
v -0.445463 0.577234 0.124750
v -0.453323 0.544405 0.162919
v -0.440721 0.584620 0.118354
v -0.432129 0.589938 0.126907
v -0.434357 0.583237 0.135720
vn 0.8558 0.4001 0.3278
vn 0.4493 0.8885 0.0935
vn 0.6480 0.4828 0.5891
vn 0.6549 -0.1899 0.7315
vn 0.2309 0.9575 0.1728
vn 0.8272 -0.0293 0.5611
vn -0.0224 0.9100 -0.4141
vn 0.9377 -0.3471 0.0123
vn 0.2544 -0.7526 0.6073
vn 0.9867 0.1498 0.0626
vn -0.1886 0.9549 -0.2292
vn 0.5957 0.7992 0.0797
vn -0.5738 0.4425 -0.6892
vn 0.8631 -0.4703 -0.1840
vn 0.1207 0.8324 -0.5408
vn -0.3230 0.3817 -0.8660
vn 0.3626 -0.8729 -0.3265
vn -0.0471 0.1795 -0.9826
vn 0.1130 -0.9114 -0.3957
vn -0.5989 -0.5117 -0.6161
vn -0.3736 -0.2526 -0.8925
vn -0.1139 -0.2854 -0.9516
vn -0.3590 -0.5587 -0.7477
vn -0.3490 -0.9243 -0.1543
vn -0.2912 -0.9560 0.0359
vn -0.3403 -0.9249 0.1698
vn -0.3418 -0.8818 0.3251
vn -0.1328 -0.9826 -0.1300
vn -0.2990 -0.8817 0.3649
vn -0.3023 -0.8854 0.3531
vn -0.1739 -0.9669 -0.1866
vn 0.0913 -0.9464 -0.3097
vn -0.0042 -0.9986 -0.0528
vn 0.4086 0.8297 0.3802
vn 0.7716 -0.0191 0.6358
vn 0.4567 0.8106 0.3665
vn -0.2556 0.8936 -0.3690
vn 0.7825 -0.0495 0.6207
vn -0.2760 0.8758 -0.3959
vn 0.4266 -0.8219 0.3775
vn -0.4967 0.5398 -0.6796
vn -0.4854 0.5501 -0.6795
vn 0.3818 -0.8497 0.3636
vn -0.4073 -0.7477 -0.5245
vn -0.3714 -0.7824 -0.4999
vn -0.5892 -0.2493 -0.7685
vn -0.6027 -0.2363 -0.7622
vn 0.1495 -0.1923 -0.9699
vn 0.7667 -0.1294 -0.6288
vn 0.2776 -0.5200 -0.8078
vn 0.8033 -0.5779 -0.1442
vn 0.9991 -0.0417 -0.0055
vn 0.8723 0.4313 -0.2304
vn 0.4408 0.4884 -0.7531
vn 0.2809 0.2894 -0.9151
vn 0.0676 -0.9083 0.4129
vn 0.0654 -0.7150 0.6961
vn -0.0275 -0.7021 0.7115
vn 0.1794 -0.9396 0.2915
vn -0.0843 -0.8288 0.5531
vn 0.0754 -0.9954 0.0592
vn -0.1050 -0.9626 0.2499
vn -0.7243 -0.1298 0.6772
vn -0.7360 -0.1437 0.6616
vn -0.7486 -0.1233 0.6515
vn -0.7123 -0.1514 0.6854
vn -0.7454 -0.1268 0.6545
vn -0.7547 -0.2117 0.6210
vn -0.7462 -0.1284 0.6532
vn -0.7344 -0.1436 0.6634
vn 0.6801 -0.1996 -0.7054
vn 0.6923 -0.1857 -0.6973
vn 0.7349 -0.1007 0.6707
vn -0.6766 -0.0817 -0.7318
vn 0.7523 -0.0682 0.6553
vn -0.6586 -0.0589 -0.7501
vn -0.7042 0.0365 0.7091
vn -0.7156 0.0023 0.6985
vn 0.7062 0.1869 0.6829
vn 0.8305 -0.1583 0.5341
vn 0.0033 0.9980 0.0631
vn -0.4184 0.7822 0.4615
vn 0.2058 0.9698 -0.1312
vn 0.1136 -0.9841 -0.1364
vn 0.5963 0.0508 0.8012
vn -0.3558 0.7087 -0.6092
vn 0.1221 -0.9803 -0.1555
vn 0.5718 -0.5748 -0.5854
vn 0.4433 0.8108 -0.3822
vn 0.5063 -0.6690 -0.5442
vn -0.1180 -0.6901 -0.7141
vn -0.6506 0.7016 -0.2907
vn -0.3364 -0.7641 -0.5505
vn 0.0164 -0.4386 -0.8985
vn -0.9253 0.3684 -0.0895
vn -0.6035 0.5173 0.6067
vn 0.3074 -0.8537 0.4203
vn -0.0632 -0.9955 0.0702
vn -0.0625 -0.9955 0.0709
vn -0.4222 -0.8532 -0.3064
vn 0.6705 0.1545 0.7256
vn 0.8281 -0.1413 0.5425
vn -0.0753 0.9883 0.1326
vn 0.1691 -0.9557 -0.2408
vn 0.2122 0.9673 -0.1392
vn 0.6339 -0.3785 -0.6745
vn -0.5233 0.6335 0.5700
vn 0.4742 0.7804 -0.4076
vn -0.0990 -0.5800 -0.8086
vn 0.6170 -0.0071 0.7870
vn -0.3764 0.6695 -0.6404
vn 0.1046 -0.9810 -0.1634
vn 0.0304 -0.2652 -0.9637
vn -0.6618 0.2940 0.6896
vn 0.4541 -0.7430 -0.4916
vn -0.3662 -0.7241 -0.5844
vn -0.7630 0.5885 -0.2675
vn -0.9744 0.2170 -0.0594
vn 0.6862 0.0044 -0.7274
vn 0.7000 0.0264 -0.7136
vn 0.7646 -0.1100 0.6350
vn -0.6774 -0.0761 -0.7317
vn 0.7767 -0.0659 0.6265
vn -0.6665 -0.0367 -0.7446
vn -0.6612 -0.2054 0.7216
vn -0.6845 -0.2457 0.6864
vn 0.5037 -0.7814 0.3685
vn 0.0846 -0.9905 -0.1084
vn 0.1165 -0.9903 -0.0753
vn -0.3481 -0.7821 -0.5168
vn 0.2129 0.9669 -0.1405
vn -0.4118 0.6392 -0.6495
vn -0.2055 0.9324 0.2974
vn 0.4968 0.7534 -0.4307
vn -0.8405 0.4529 -0.2974
vn 0.8450 -0.1256 0.5198
vn -0.5857 0.5330 0.6106
vn 0.6465 0.0342 0.7622
vn -0.9836 0.1640 -0.0750
vn 0.2320 -0.9106 -0.3420
vn -0.6686 0.2426 0.7029
vn 0.6425 -0.3255 -0.6937
vn 0.1491 -0.9699 -0.1927
vn 0.6263 0.0041 0.7796
vn 0.4767 -0.7142 -0.5124
vn -0.3034 -0.6895 -0.6577
vn -0.1450 -0.5164 -0.8440
vn 0.0003 -0.2285 -0.9736
vn 0.6669 0.0478 -0.7436
vn 0.6773 0.0612 -0.7332
vn 0.7710 -0.0877 0.6307
vn -0.6789 -0.1030 -0.7270
vn 0.7828 -0.0366 0.6211
vn -0.6613 -0.0936 -0.7442
vn -0.6607 -0.2781 0.6973
vn -0.6631 -0.3116 0.6805
vn 0.4340 -0.8837 0.1751
vn 0.1182 -0.9820 -0.1472
vn 0.1188 -0.9820 -0.1466
vn -0.2394 -0.8599 -0.4507
vn -0.6854 -0.0548 -0.7261
vn 0.6373 -0.3540 -0.6845
vn -0.7145 -0.1225 -0.6889
vn -0.6706 0.1861 0.7181
vn 0.6569 -0.3793 -0.6516
vn -0.6459 0.1359 0.7512
vn 0.7423 -0.1104 0.6610
vn 0.7615 -0.0930 0.6415
vn 0.4790 0.7744 -0.4134
vn 0.2076 0.9689 -0.1349
vn 0.8817 -0.0713 0.4664
vn -0.3973 0.6712 -0.6258
vn -0.1634 0.9624 0.2169
vn 0.5731 0.1221 0.8103
vn -0.8017 0.5686 -0.1842
vn -0.4876 0.6873 0.5384
vn 0.3342 -0.8530 -0.4009
vn -0.9176 0.3900 -0.0764
vn 0.6571 0.0096 0.7538
vn 0.2548 -0.9154 -0.3116
vn -0.5669 0.5562 0.6077
vn 0.4598 -0.7366 -0.4960
vn 0.5284 -0.6181 -0.5819
vn -0.2634 -0.6511 -0.7118
vn -0.0994 -0.4139 -0.9049
vn -0.3453 -0.5093 -0.7883
vn 0.2805 -0.7909 0.5439
vn -0.1713 -0.9679 0.1837
vn -0.1668 -0.9679 0.1880
vn -0.5372 -0.8162 -0.2129
vn -0.1775 -0.6935 -0.6982
vn -0.3858 -0.8427 -0.3756
vn -0.9133 0.3883 -0.1227
vn 0.4978 -0.6870 0.5293
vn -0.9792 0.0564 0.1950
vn 0.8232 -0.4444 0.3532
vn -0.1408 0.2166 0.9661
vn -0.4299 -0.6420 0.6349
vn 0.9056 -0.3499 0.2396
vn -0.0083 0.5347 0.8450
vn -0.1883 -0.6976 -0.6913
vn 0.0938 0.6262 0.7740
vn -0.9404 0.3248 -0.1010
vn 0.9263 -0.3603 0.1108
vn -0.9439 0.3026 -0.1325
vn 0.0821 0.6996 0.7098
vn -0.0724 -0.5051 -0.8600
vn 0.9928 -0.0971 -0.0699
vn -0.7090 0.6080 -0.3573
vn 0.8206 0.4088 -0.3994
vn 0.1516 0.9533 0.2614
vn 0.0614 0.0790 -0.9950
vn 0.0940 0.8387 -0.5364
vt 0.472957 0.456265
vt 0.468280 0.422042
vt 0.559470 0.443632
vt 0.559470 0.456643
vt 0.559470 0.427502
vt 0.490506 0.459871
vt 0.470950 0.345691
vt 0.473414 0.453043
vt 0.528100 0.427354
vt 0.461942 0.400306
vt 0.559470 0.346764
vt 0.462153 0.394727
vt 0.559470 0.317300
vt 0.461857 0.393448
vt 0.460654 0.360198
vt 0.468734 0.320430
vt 0.470384 0.424417
vt 0.460608 0.340565
vt 0.465909 0.412671
vt 0.559469 0.328510
vt 0.471044 0.330751
vt 0.460345 0.359853
vt 0.472386 0.344117
vt 0.559470 0.351039
vt 0.549382 0.339438
vt 0.583220 0.398197
vt 0.545519 0.404289
vt 0.617473 0.332516
vt 0.577879 0.415753
vt 0.545519 0.445042
vt 0.610564 0.401070
vt 0.599003 0.381847
vt 0.600516 0.348252
vt 0.433095 0.700582
vt 0.432834 0.698081
vt 0.435432 0.700072
vt 0.436989 0.707740
vt 0.435273 0.698050
vt 0.434836 0.708199
vt 0.431921 0.694084
vt 0.437637 0.710520
vt 0.435631 0.710472
vt 0.435323 0.695318
vt 0.433545 0.686726
vt 0.436552 0.687735
vt 0.437078 0.685382
vt 0.435032 0.684986
vt 0.440024 0.697039
vt 0.425976 0.700167
vt 0.427441 0.697001
vt 0.429411 0.698974
vt 0.421754 0.700073
vt 0.429639 0.701055
vt 0.421613 0.701913
vt 0.427845 0.703164
vt 0.557001 0.374720
vt 0.548278 0.376115
vt 0.557307 0.400209
vt 0.554274 0.367256
vt 0.548375 0.399094
vt 0.549837 0.368155
vt 0.555501 0.409044
vt 0.549115 0.408085
vt 0.546524 0.405406
vt 0.569712 0.405406
vt 0.546524 0.383538
vt 0.546524 0.426950
vt 0.569712 0.383538
vt 0.569712 0.426950
vt 0.460299 0.708540
vt 0.454446 0.709508
vt 0.459623 0.705312
vt 0.460885 0.705172
vt 0.454064 0.705921
vt 0.460581 0.712640
vt 0.466059 0.708942
vt 0.453438 0.703318
vt 0.454613 0.712721
vt 0.466192 0.712478
vt 0.450658 0.707050
vt 0.451251 0.712529
vt 0.460473 0.716774
vt 0.460052 0.702506
vt 0.454429 0.716058
vt 0.466344 0.716084
vt 0.465990 0.702305
vt 0.466004 0.705045
vt 0.547960 0.342997
vt 0.555869 0.342997
vt 0.547960 0.350906
vt 0.555869 0.350906
vt 0.460021 0.677021
vt 0.454207 0.677699
vt 0.459500 0.674051
vt 0.460136 0.680812
vt 0.454014 0.674371
vt 0.465702 0.680840
vt 0.460736 0.673966
vt 0.450614 0.675359
vt 0.459883 0.684631
vt 0.465675 0.677599
vt 0.453560 0.671999
vt 0.454235 0.680648
vt 0.465747 0.684172
vt 0.465727 0.674038
vt 0.450935 0.680300
vt 0.453933 0.683698
vt 0.460051 0.671543
vt 0.465802 0.671600
vt 0.448547 0.876475
vt 0.447996 0.874299
vt 0.453036 0.876082
vt 0.445483 0.877458
vt 0.453424 0.873662
vt 0.448755 0.879575
vt 0.454076 0.875984
vt 0.453518 0.878927
vt 0.458369 0.873586
vt 0.453570 0.882558
vt 0.458327 0.875991
vt 0.458265 0.882682
vt 0.448766 0.882294
vt 0.458275 0.879508
vt 0.445781 0.881923
vt 0.448347 0.885104
vt 0.453209 0.886224
vt 0.458217 0.885962
vt 0.451617 0.690567
vt 0.454478 0.690029
vt 0.454737 0.693158
vt 0.453620 0.687881
vt 0.459753 0.689754
vt 0.460400 0.692531
vt 0.460181 0.687426
vt 0.461037 0.689703
vt 0.460496 0.696050
vt 0.465860 0.687075
vt 0.466178 0.693090
vt 0.454750 0.696062
vt 0.466083 0.689585
vt 0.451603 0.696313
vt 0.466182 0.696158
vt 0.454099 0.698786
vt 0.466136 0.699358
vt 0.460004 0.699496
vt 0.544832 0.438551
vt 0.557814 0.441399
vt 0.544832 0.447570
vt 0.557814 0.446038
vt 0.557814 0.447801
vt 0.544832 0.445417
vt 0.557814 0.451307
vt 0.557814 0.446684
vt 0.530209 0.444733
vt 0.544832 0.453282
vt 0.530886 0.437393
vt 0.532232 0.453709
vt 0.534751 0.447086
vt 0.525116 0.443770
vt 0.519713 0.446883
vt 0.514890 0.454716
vt 0.512959 0.436350
vt 0.507196 0.443949
vt 0.511067 0.446995
vt 0.503163 0.445409
vt 0.507066 0.453426
vt 0.505880 0.439133
vt 0.505451 0.446371
s 1
usemtl Material.016
f 1/1/1 2/2/2 3/3/3
f 16/4/4 1/1/1 3/3/3
f 3/3/3 2/2/2 4/5/5
f 14/6/6 1/1/1 16/4/4
f 2/2/2 18/7/7 4/5/5
f 1/1/1 14/6/6 15/8/8
f 14/6/6 16/4/4 70/9/9
f 1/1/1 24/10/10 2/2/2
f 4/5/5 18/7/7 17/11/11
f 15/8/8 24/10/10 1/1/1
f 2/2/2 24/10/10 46/12/12
f 17/11/11 18/7/7 11/13/13
f 23/14/14 24/10/10 15/8/8
f 18/7/7 2/2/2 63/15/15
f 63/15/15 2/2/2 46/12/12
f 11/13/13 18/7/7 12/16/16
f 15/8/8 64/17/17 23/14/14
f 51/18/18 18/7/7 63/15/15
f 12/16/16 18/7/7 51/18/18
f 64/17/17 65/19/19 23/14/14
f 11/13/13 12/16/16 13/20/20
f 51/18/18 7/21/21 12/16/16
f 13/20/20 12/16/16 7/21/21
f 5/22/22 7/21/21 51/18/18
f 7/21/21 6/23/23 13/20/20
f 5/22/22 6/23/23 7/21/21
f 13/20/20 6/23/23 62/24/24
f 8/25/25 9/26/26 10/27/27
f 56/28/28 9/26/26 8/25/25
f 9/26/26 43/29/29 10/27/27
f 10/27/27 43/29/29 44/30/30
f 57/31/31 9/26/26 56/28/28
f 56/28/28 55/32/32 57/31/31
f 54/33/33 55/32/32 56/28/28
f 19/34/34 20/35/35 21/36/36
f 26/37/37 19/34/34 21/36/36
f 21/36/36 20/35/35 22/38/38
f 25/39/39 19/34/34 26/37/37
f 20/35/35 50/40/40 22/38/38
f 35/41/41 25/39/39 26/37/37
f 34/42/42 25/39/39 35/41/41
f 22/38/38 50/40/40 49/43/43
f 29/44/44 49/43/43 50/40/40
f 30/45/45 49/43/43 29/44/44
f 29/44/44 28/46/46 30/45/45
f 27/47/47 28/46/46 29/44/44
f 31/46/48 32/48/49 33/45/50
f 33/45/50 32/48/49 45/43/51
f 48/38/52 45/43/51 32/48/49
f 32/48/49 47/36/53 48/38/52
f 32/48/49 58/37/54 47/36/53
f 58/37/54 32/48/49 69/41/55
f 36/49/56 37/50/57 38/51/58
f 37/50/57 36/49/56 52/52/59
f 36/49/56 38/51/58 68/53/60
f 52/52/59 36/49/56 53/54/61
f 36/49/56 68/53/60 61/55/62
f 61/55/62 53/54/61 36/49/56
f 39/56/63 40/57/64 41/58/65
f 39/56/63 59/59/66 40/57/64
f 41/58/65 40/57/64 42/60/67
f 40/57/64 59/59/66 60/61/68
f 41/58/65 42/60/67 66/62/69
f 66/62/69 42/60/67 67/63/70
f 71/64/71 72/65/72 73/66/73
f 98/67/74 72/65/72 71/64/71
f 73/66/73 72/65/72 74/68/75
f 97/69/76 72/65/72 98/67/74
f 74/68/75 93/65/77 73/66/73
f 97/69/76 98/67/74 93/65/77
f 73/66/73 93/65/77 94/64/78
f 93/65/77 98/67/74 94/64/78
f 75/70/79 76/71/80 77/72/81
f 75/70/79 77/72/81 80/73/82
f 77/72/81 76/71/80 78/74/83
f 90/75/84 76/71/80 75/70/79
f 75/70/79 80/73/82 92/76/85
f 78/74/83 86/77/86 77/72/81
f 84/78/87 76/71/80 90/75/84
f 90/75/84 75/70/79 91/79/88
f 91/79/88 75/70/79 92/76/85
f 78/74/83 85/80/89 86/77/86
f 83/81/90 76/71/80 84/78/87
f 91/79/88 95/82/91 90/75/84
f 85/80/89 78/74/83 76/71/80
f 77/72/81 86/77/86 82/83/92
f 77/72/81 82/83/92 80/73/82
f 95/82/91 96/84/93 90/75/84
f 90/75/84 96/84/93 84/78/87
f 83/81/90 84/78/87 96/84/93
f 99/85/94 95/82/91 91/79/88
f 81/86/95 80/73/82 82/83/92
f 92/76/85 80/73/82 79/87/96
f 79/87/96 80/73/82 81/86/95
f 87/88/97 88/89/98 89/90/99
f 89/90/99 88/89/98 100/91/100
f 101/92/101 102/93/102 103/94/103
f 116/95/104 102/93/102 101/92/101
f 103/94/103 102/93/102 104/96/105
f 116/95/104 101/92/101 115/97/106
f 101/92/101 103/94/103 122/98/107
f 105/99/108 104/96/105 102/93/102
f 115/97/106 114/100/109 116/95/104
f 101/92/101 122/98/107 123/101/110
f 104/96/105 105/99/108 121/102/111
f 115/97/106 101/92/101 123/101/110
f 104/96/105 121/102/111 103/94/103
f 107/103/112 102/93/102 116/95/104
f 113/104/113 114/100/109 115/97/106
f 123/101/110 122/98/107 124/105/114
f 106/106/115 102/93/102 107/103/112
f 114/100/109 112/107/116 116/95/104
f 103/94/103 125/108/117 122/98/107
f 106/106/115 107/103/112 112/107/116
f 103/94/103 121/102/111 125/108/117
f 124/105/114 122/98/107 129/109/118
f 116/95/104 112/107/116 107/103/112
f 129/109/118 122/98/107 125/108/117
f 108/64/119 109/65/120 110/66/121
f 108/64/119 117/67/122 109/65/120
f 110/66/121 109/65/120 111/68/123
f 109/65/120 117/67/122 118/69/124
f 111/68/123 120/65/125 110/66/121
f 117/67/122 120/65/125 118/69/124
f 110/66/121 120/65/125 119/64/126
f 119/64/126 120/65/125 117/67/122
f 126/88/127 127/89/128 128/90/129
f 128/90/129 127/89/128 130/91/130
f 131/110/131 132/111/132 133/112/133
f 131/110/131 135/113/134 132/111/132
f 133/112/133 132/111/132 134/114/135
f 133/112/133 137/115/136 131/110/131
f 135/113/134 131/110/131 137/115/136
f 133/112/133 134/114/135 140/116/137
f 139/117/138 137/115/136 133/112/133
f 139/117/138 133/112/133 140/116/137
f 152/118/139 140/116/137 134/114/135
f 149/119/140 137/115/136 139/117/138
f 142/120/141 140/116/137 152/118/139
f 149/119/140 139/117/138 151/121/142
f 138/122/143 137/115/136 149/119/140
f 141/123/144 140/116/137 142/120/141
f 139/117/138 140/116/137 141/123/144
f 151/121/142 139/117/138 141/123/144
f 136/124/145 137/115/136 138/122/143
f 149/119/140 148/125/146 138/122/143
f 136/124/145 138/122/143 148/125/146
f 151/121/142 147/126/147 149/119/140
f 147/126/147 148/125/146 149/119/140
f 150/127/148 147/126/147 151/121/142
f 143/64/149 144/65/150 145/66/151
f 143/64/149 153/67/152 144/65/150
f 145/66/151 144/65/150 146/68/153
f 144/65/150 153/67/152 154/69/154
f 146/68/153 158/65/155 145/66/151
f 154/69/154 153/67/152 158/65/155
f 145/66/151 158/65/155 159/64/156
f 158/65/155 153/67/152 159/64/156
f 155/88/157 156/89/158 157/90/159
f 157/90/159 156/89/158 160/91/160
f 161/69/161 162/65/162 163/67/163
f 161/69/161 163/67/163 171/65/164
f 163/67/163 162/65/162 164/64/165
f 171/65/164 163/67/163 172/64/166
f 164/64/165 162/65/162 181/66/167
f 172/64/166 181/66/167 171/65/164
f 181/66/167 162/65/162 182/68/168
f 171/65/164 181/66/167 182/68/168
f 165/128/169 166/129/170 167/130/171
f 166/129/170 165/128/169 186/131/172
f 183/132/173 167/130/171 166/129/170
f 166/129/170 186/131/172 183/132/173
f 173/133/174 167/130/171 183/132/173
f 183/132/173 186/131/172 184/134/175
f 173/133/174 183/132/173 174/135/176
f 183/132/173 184/134/175 174/135/176
f 178/136/177 167/130/171 173/133/174
f 185/137/178 174/135/176 184/134/175
f 175/138/179 178/136/177 173/133/174
f 173/133/174 174/135/176 175/138/179
f 169/139/180 167/130/171 178/136/177
f 176/140/181 174/135/176 185/137/178
f 175/138/179 174/135/176 176/140/181
f 168/141/182 167/130/171 169/139/180
f 180/142/183 178/136/177 175/138/179
f 168/141/182 169/139/180 170/143/184
f 178/136/177 170/143/184 169/139/180
f 179/144/185 178/136/177 180/142/183
f 177/145/186 170/143/184 178/136/177
f 177/145/186 178/136/177 179/144/185
f 187/88/187 188/89/188 189/90/189
f 189/90/189 188/89/188 190/91/190
f 191/146/191 192/147/192 193/148/193
f 191/146/191 196/149/194 192/147/192
f 193/148/193 192/147/192 194/150/195
f 195/151/196 196/149/194 191/146/191
f 210/152/197 193/148/193 194/150/195
f 195/151/196 210/152/197 196/149/194
f 194/150/195 192/147/192 197/153/198
f 210/152/197 194/150/195 197/153/198
f 192/147/192 196/149/194 197/153/198
f 196/149/194 210/152/197 197/153/198
f 195/151/196 191/146/191 201/154/199
f 200/155/200 193/148/193 210/152/197
f 200/155/200 210/152/197 195/151/196
f 201/154/199 191/146/191 202/156/201
f 199/157/202 193/148/193 200/155/200
f 200/155/200 195/151/196 199/157/202
f 199/157/202 195/151/196 201/154/199
f 202/156/201 191/146/191 198/158/203
f 198/158/203 193/148/193 199/157/202
f 198/158/203 191/146/191 193/148/193
f 202/156/201 207/159/204 201/154/199
f 199/157/202 201/154/199 207/159/204
f 209/160/205 202/156/201 198/158/203
f 199/157/202 213/161/206 198/158/203
f 199/157/202 207/159/204 213/161/206
f 198/158/203 213/161/206 209/160/205
f 208/162/207 207/159/204 202/156/201
f 208/162/207 202/156/201 209/160/205
f 213/161/206 207/159/204 206/163/208
f 206/163/208 207/159/204 208/162/207
f 209/160/205 211/164/209 208/162/207
f 213/161/206 211/164/209 209/160/205
f 208/162/207 204/165/210 206/163/208
f 212/166/211 211/164/209 213/161/206
f 204/165/210 212/166/211 206/163/208
f 206/163/208 212/166/211 213/161/206
f 205/167/212 204/165/210 208/162/207
f 208/162/207 211/164/209 205/167/212
f 212/166/211 204/165/210 203/168/213
f 203/168/213 211/164/209 212/166/211
f 203/168/213 204/165/210 205/167/212
f 205/167/212 211/164/209 203/168/213
