# Blender 4.0.2
# www.blender.org
mtllib buzzlightyLeftWing1.mtl
o buzzlightyLeftWing1_buzzlighty.015
v 0.329239 0.627911 -0.140361
v 0.329273 0.627911 -0.120924
v 0.329241 0.468588 -0.139162
v 0.329271 0.468588 -0.122121
v 0.065897 0.661365 -0.120460
v 0.329273 0.627911 -0.120924
v 0.065863 0.661365 -0.139896
v 0.329239 0.627911 -0.140361
v 0.065865 0.468588 -0.138697
v 0.329241 0.468588 -0.139162
v 0.065895 0.468588 -0.121656
v 0.329271 0.468588 -0.122121
v 0.329241 0.468588 -0.139162
v 0.065865 0.468588 -0.138697
v 0.329239 0.627911 -0.140361
v 0.065863 0.661365 -0.139896
v 0.329271 0.468588 -0.122121
v 0.329273 0.627911 -0.120924
v 0.065895 0.468588 -0.121656
v 0.065897 0.661365 -0.120460
vn 1.0000 -0.0000 -0.0017
vn 1.0000 -0.0000 -0.0018
vn 0.1260 0.9920 -0.0002
vn -0.0000 -1.0000 -0.0000
vn -0.0018 -0.0075 -1.0000
vn -0.0023 -0.0067 -1.0000
vn -0.0021 -0.0070 -1.0000
vn -0.0026 -0.0062 -1.0000
vn 0.0018 -0.0075 1.0000
vn 0.0015 -0.0070 1.0000
vn 0.0012 -0.0067 1.0000
vn 0.0010 -0.0062 1.0000
vt 0.829549 0.781315
vt 0.829549 0.818540
vt 0.890919 0.781315
vt 0.890919 0.818539
vt 0.720528 0.620831
vt 0.768581 0.990761
vt 0.745246 0.628757
vt 0.788277 0.998687
vt 0.899559 0.886667
vt 0.929862 0.886667
vt 0.899559 0.916970
vt 0.929862 0.916970
vt 0.988638 0.990761
vt 0.988638 0.620831
s 1
usemtl Material.010
f 1/1/1 2/2/1 3/3/2
f 3/3/2 2/2/1 4/4/2
f 5/5/3 6/6/3 7/7/3
f 7/7/3 6/6/3 8/8/3
f 9/9/4 10/10/4 11/11/4
f 11/11/4 10/10/4 12/12/4
f 13/13/5 14/14/6 15/6/7
f 15/6/7 14/14/6 16/5/8
f 17/13/9 18/6/10 19/14/11
f 19/14/11 18/6/10 20/5/12
